<svg width="31" height="31" viewBox="0 0 31 31" fill="none" xmlns="http://www.w3.org/2000/svg">
<path fill-rule="evenodd" clip-rule="evenodd" d="M8.40781 5.617C7.02709 5.617 5.90781 6.73629 5.90781 8.117C5.90781 9.49772 7.02709 10.617 8.40781 10.617C9.78852 10.617 10.9078 9.49772 10.9078 8.117C10.9078 6.73629 9.78852 5.617 8.40781 5.617ZM3.40781 8.117C3.40781 5.35558 5.64638 3.117 8.40781 3.117C11.1692 3.117 13.4078 5.35558 13.4078 8.117C13.4078 10.8784 11.1692 13.117 8.40781 13.117C5.64638 13.117 3.40781 10.8784 3.40781 8.117Z" fill="white"/>
<path fill-rule="evenodd" clip-rule="evenodd" d="M8.40781 20.617C7.02709 20.617 5.90781 21.7363 5.90781 23.117C5.90781 24.4977 7.02709 25.617 8.40781 25.617C9.78852 25.617 10.9078 24.4977 10.9078 23.117C10.9078 21.7363 9.78852 20.617 8.40781 20.617ZM3.40781 23.117C3.40781 20.3556 5.64638 18.117 8.40781 18.117C11.1692 18.117 13.4078 20.3556 13.4078 23.117C13.4078 25.8784 11.1692 28.117 8.40781 28.117C5.64638 28.117 3.40781 25.8784 3.40781 23.117Z" fill="white"/>
<path fill-rule="evenodd" clip-rule="evenodd" d="M26.7917 4.73312C27.2798 5.22128 27.2798 6.01273 26.7917 6.50089L11.9417 21.3509C11.4535 21.839 10.6621 21.839 10.1739 21.3509C9.68576 20.8627 9.68576 20.0713 10.1739 19.5831L25.0239 4.73312C25.5121 4.24497 26.3035 4.24497 26.7917 4.73312Z" fill="white"/>
<path fill-rule="evenodd" clip-rule="evenodd" d="M18.1106 17.8339C18.5983 17.3453 19.3898 17.3446 19.8784 17.8323L26.7909 24.7323C27.2795 25.22 27.2802 26.0115 26.7925 26.5001C26.3048 26.9887 25.5133 26.9894 25.0247 26.5017L18.1122 19.6017C17.6236 19.114 17.6229 18.3225 18.1106 17.8339Z" fill="white"/>
<path fill-rule="evenodd" clip-rule="evenodd" d="M10.1739 9.88312C10.6621 9.39497 11.4535 9.39497 11.9417 9.88312L16.7917 14.7331C17.2798 15.2213 17.2798 16.0127 16.7917 16.5009C16.3035 16.989 15.5121 16.989 15.0239 16.5009L10.1739 11.6509C9.68576 11.1627 9.68576 10.3713 10.1739 9.88312Z" fill="white"/>
</svg>
