<svg width="31" height="30" viewBox="0 0 31 30" fill="none" xmlns="http://www.w3.org/2000/svg">
<g clip-path="url(#clip0)">
<path fill-rule="evenodd" clip-rule="evenodd" d="M7.76953 6.25C7.07917 6.25 6.51953 6.80964 6.51953 7.5V22.5C6.51953 23.1904 7.07917 23.75 7.76953 23.75H22.7695C23.4599 23.75 24.0195 23.1904 24.0195 22.5V7.5C24.0195 6.80964 23.4599 6.25 22.7695 6.25H7.76953ZM4.01953 7.5C4.01953 5.42893 5.69846 3.75 7.76953 3.75H22.7695C24.8406 3.75 26.5195 5.42893 26.5195 7.5V22.5C26.5195 24.5711 24.8406 26.25 22.7695 26.25H7.76953C5.69846 26.25 4.01953 24.5711 4.01953 22.5V7.5Z" fill="white"/>
<path fill-rule="evenodd" clip-rule="evenodd" d="M10.2695 11.25C10.2695 10.5596 10.8292 10 11.5195 10H19.0195C19.7099 10 20.2695 10.5596 20.2695 11.25V18.75C20.2695 19.4404 19.7099 20 19.0195 20H11.5195C10.8292 20 10.2695 19.4404 10.2695 18.75V11.25ZM12.7695 12.5V17.5H17.7695V12.5H12.7695Z" fill="white"/>
<path fill-rule="evenodd" clip-rule="evenodd" d="M11.5195 0C12.2099 0 12.7695 0.559644 12.7695 1.25V5C12.7695 5.69036 12.2099 6.25 11.5195 6.25C10.8292 6.25 10.2695 5.69036 10.2695 5V1.25C10.2695 0.559644 10.8292 0 11.5195 0Z" fill="white"/>
<path fill-rule="evenodd" clip-rule="evenodd" d="M19.0195 0C19.7099 0 20.2695 0.559644 20.2695 1.25V5C20.2695 5.69036 19.7099 6.25 19.0195 6.25C18.3292 6.25 17.7695 5.69036 17.7695 5V1.25C17.7695 0.559644 18.3292 0 19.0195 0Z" fill="white"/>
<path fill-rule="evenodd" clip-rule="evenodd" d="M11.5195 23.75C12.2099 23.75 12.7695 24.3096 12.7695 25V28.75C12.7695 29.4404 12.2099 30 11.5195 30C10.8292 30 10.2695 29.4404 10.2695 28.75V25C10.2695 24.3096 10.8292 23.75 11.5195 23.75Z" fill="white"/>
<path fill-rule="evenodd" clip-rule="evenodd" d="M19.0195 23.75C19.7099 23.75 20.2695 24.3096 20.2695 25V28.75C20.2695 29.4404 19.7099 30 19.0195 30C18.3292 30 17.7695 29.4404 17.7695 28.75V25C17.7695 24.3096 18.3292 23.75 19.0195 23.75Z" fill="white"/>
<path fill-rule="evenodd" clip-rule="evenodd" d="M24.0195 11.25C24.0195 10.5596 24.5792 10 25.2695 10H29.0195C29.7099 10 30.2695 10.5596 30.2695 11.25C30.2695 11.9404 29.7099 12.5 29.0195 12.5H25.2695C24.5792 12.5 24.0195 11.9404 24.0195 11.25Z" fill="white"/>
<path fill-rule="evenodd" clip-rule="evenodd" d="M24.0195 17.5C24.0195 16.8096 24.5792 16.25 25.2695 16.25H29.0195C29.7099 16.25 30.2695 16.8096 30.2695 17.5C30.2695 18.1904 29.7099 18.75 29.0195 18.75H25.2695C24.5792 18.75 24.0195 18.1904 24.0195 17.5Z" fill="white"/>
<path fill-rule="evenodd" clip-rule="evenodd" d="M0.269531 11.25C0.269531 10.5596 0.829175 10 1.51953 10H5.26953C5.95989 10 6.51953 10.5596 6.51953 11.25C6.51953 11.9404 5.95989 12.5 5.26953 12.5H1.51953C0.829175 12.5 0.269531 11.9404 0.269531 11.25Z" fill="white"/>
<path fill-rule="evenodd" clip-rule="evenodd" d="M0.269531 17.5C0.269531 16.8096 0.829175 16.25 1.51953 16.25H5.26953C5.95989 16.25 6.51953 16.8096 6.51953 17.5C6.51953 18.1904 5.95989 18.75 5.26953 18.75H1.51953C0.829175 18.75 0.269531 18.1904 0.269531 17.5Z" fill="white"/>
</g>
<defs>
<clipPath id="clip0">
<rect width="30" height="30" fill="white" transform="translate(0.269531)"/>
</clipPath>
</defs>
</svg>
