<svg width="31" height="33" viewBox="0 0 31 33" fill="none" xmlns="http://www.w3.org/2000/svg">
<path fill-rule="evenodd" clip-rule="evenodd" d="M14.2139 0.315045C14.7555 -0.105015 15.514 -0.105015 16.0557 0.315045L29.5557 10.7843C29.9211 11.0676 30.1348 11.5033 30.1348 11.9648V28.4164C30.1348 29.6064 29.6607 30.7476 28.8167 31.5891C27.9728 32.4305 26.8282 32.9032 25.6348 32.9032H4.63477C3.44129 32.9032 2.2967 32.4305 1.45279 31.5891C0.608871 30.7476 0.134766 29.6064 0.134766 28.4164V11.9648C0.134766 11.5033 0.348475 11.0676 0.713855 10.7843L14.2139 0.315045ZM3.13477 12.6963V28.4164C3.13477 28.8131 3.2928 29.1935 3.57411 29.474C3.85541 29.7545 4.23694 29.912 4.63477 29.912H25.6348C26.0326 29.912 26.4141 29.7545 26.6954 29.474C26.9767 29.1935 27.1348 28.8131 27.1348 28.4164V12.6963L15.1348 3.39032L3.13477 12.6963Z" fill="white"/>
<path fill-rule="evenodd" clip-rule="evenodd" d="M9.13477 16.4516C9.13477 15.6256 9.80634 14.956 10.6348 14.956H19.6348C20.4632 14.956 21.1348 15.6256 21.1348 16.4516V31.4076C21.1348 32.2336 20.4632 32.9032 19.6348 32.9032C18.8063 32.9032 18.1348 32.2336 18.1348 31.4076V17.9472H12.1348V31.4076C12.1348 32.2336 11.4632 32.9032 10.6348 32.9032C9.80634 32.9032 9.13477 32.2336 9.13477 31.4076V16.4516Z" fill="white"/>
</svg>
