<svg width="18" height="18" viewBox="0 0 18 18" fill="none" xmlns="http://www.w3.org/2000/svg">
<path fill-rule="evenodd" clip-rule="evenodd" d="M0.75 9C0.75 8.58579 1.08579 8.25 1.5 8.25H6C6.25076 8.25 6.48494 8.37533 6.62404 8.58397L7.90139 10.5H10.0986L11.376 8.58397C11.5151 8.37533 11.7492 8.25 12 8.25H16.5C16.9142 8.25 17.25 8.58579 17.25 9C17.25 9.41421 16.9142 9.75 16.5 9.75H12.4014L11.124 11.666C10.9849 11.8747 10.7508 12 10.5 12H7.5C7.24924 12 7.01506 11.8747 6.87596 11.666L5.59861 9.75H1.5C1.08579 9.75 0.75 9.41421 0.75 9Z" fill="#223E5C"/>
<path fill-rule="evenodd" clip-rule="evenodd" d="M5.43 2.25L12.57 2.25C12.9886 2.25022 13.3992 2.36721 13.755 2.58781C14.1104 2.80822 14.3974 3.12333 14.5837 3.49776C14.5838 3.49809 14.584 3.49842 14.5841 3.49875L17.1706 8.6642C17.2228 8.76844 17.25 8.88342 17.25 9V13.5C17.25 14.0967 17.0129 14.669 16.591 15.091C16.169 15.5129 15.5967 15.75 15 15.75H3C2.40326 15.75 1.83097 15.5129 1.40901 15.091C0.987053 14.669 0.75 14.0967 0.75 13.5V9C0.75 8.88342 0.777177 8.76844 0.829374 8.6642L3.41585 3.49875C3.41603 3.49838 3.41622 3.49802 3.4164 3.49765C3.60269 3.12327 3.88963 2.8082 4.24503 2.58781C4.60077 2.36721 5.0114 2.25022 5.43 2.25ZM4.0875 3.8325L4.75813 4.1683L2.25 9.17728V13.5C2.25 13.6989 2.32902 13.8897 2.46967 14.0303C2.61032 14.171 2.80109 14.25 3 14.25H15C15.1989 14.25 15.3897 14.171 15.5303 14.0303C15.671 13.8897 15.75 13.6989 15.75 13.5V9.17728L13.2419 4.1683L13.2409 4.16625C13.1788 4.04129 13.083 3.93614 12.9645 3.8626C12.8459 3.7891 12.7092 3.7501 12.5697 3.75H5.43025C5.29077 3.7501 5.15408 3.7891 5.03554 3.8626C4.91696 3.93614 4.82124 4.0413 4.75915 4.16625L4.0875 3.8325Z" fill="#223E5C"/>
</svg>
