<svg width="30" height="26" viewBox="0 0 30 26" fill="none" xmlns="http://www.w3.org/2000/svg">
<path fill-rule="evenodd" clip-rule="evenodd" d="M0 1.275C0 0.570837 0.559644 0 1.25 0H20C20.6904 0 21.25 0.570837 21.25 1.275V17.85C21.25 18.5542 20.6904 19.125 20 19.125H1.25C0.559644 19.125 0 18.5542 0 17.85V1.275ZM2.5 2.55V16.575H18.75V2.55H2.5Z" fill="white"/>
<path fill-rule="evenodd" clip-rule="evenodd" d="M18.75 7.65C18.75 6.94584 19.3096 6.375 20 6.375H25C25.3315 6.375 25.6495 6.50933 25.8839 6.74844L29.6339 10.5734C29.8683 10.8125 30 11.1368 30 11.475V17.85C30 18.5542 29.4404 19.125 28.75 19.125H20C19.3096 19.125 18.75 18.5542 18.75 17.85V7.65ZM21.25 8.925V16.575H27.5V12.0031L24.4822 8.925H21.25Z" fill="white"/>
<path fill-rule="evenodd" clip-rule="evenodd" d="M6.875 19.125C5.83947 19.125 5 19.9813 5 21.0375C5 22.0937 5.83947 22.95 6.875 22.95C7.91053 22.95 8.75 22.0937 8.75 21.0375C8.75 19.9813 7.91053 19.125 6.875 19.125ZM2.5 21.0375C2.5 18.5729 4.45875 16.575 6.875 16.575C9.29125 16.575 11.25 18.5729 11.25 21.0375C11.25 23.5021 9.29125 25.5 6.875 25.5C4.45875 25.5 2.5 23.5021 2.5 21.0375Z" fill="white"/>
<path fill-rule="evenodd" clip-rule="evenodd" d="M23.125 19.125C22.0895 19.125 21.25 19.9813 21.25 21.0375C21.25 22.0937 22.0895 22.95 23.125 22.95C24.1605 22.95 25 22.0937 25 21.0375C25 19.9813 24.1605 19.125 23.125 19.125ZM18.75 21.0375C18.75 18.5729 20.7088 16.575 23.125 16.575C25.5412 16.575 27.5 18.5729 27.5 21.0375C27.5 23.5021 25.5412 25.5 23.125 25.5C20.7088 25.5 18.75 23.5021 18.75 21.0375Z" fill="white"/>
</svg>
