<svg width="31" height="29" viewBox="0 0 31 29" fill="none" xmlns="http://www.w3.org/2000/svg">
<path fill-rule="evenodd" clip-rule="evenodd" d="M6.31583 2.9676C6.31432 2.96296 6.31285 2.9583 6.31143 2.95363L6.31583 2.9676ZM7.00365 5.07756L9.36573 12.3223C9.53318 12.8359 10.0124 13.1835 10.553 13.1835H20.6671C21.208 13.1835 21.6875 12.8354 21.8546 12.3214L24.2092 5.08036L26.5719 12.3463L28.1006 16.8687L20.7277 20.2762L15.61 25.9388L10.0107 20.4787L3.1679 16.9039L7.00365 5.07756ZM28.2805 16.9616L28.1798 16.8232C28.1936 16.8053 28.2104 16.7897 28.2296 16.7773L28.3382 16.9449L28.2805 16.9616ZM28.3095 17.0014L28.9082 17.8246L28.3631 16.9833L28.3095 17.0014ZM29.6203 18.8498L22.6691 21.9787L16.3441 28.4903C15.9064 28.8082 15.3136 28.8082 14.8759 28.4903L8.88574 22.7287L1.57776 18.8338L1.57207 18.8297C1.18155 18.5427 0.891885 18.1397 0.744503 17.6783C0.597625 17.2185 0.599562 16.7241 0.749965 16.2655L5.31978 2.18079C5.32684 2.15908 5.3345 2.13757 5.34274 2.11628C5.44228 1.85911 5.60051 1.62873 5.80484 1.44344C6.13358 1.14445 6.56217 0.978706 7.00679 0.978706C7.45244 0.978706 7.88198 1.14521 8.21102 1.44551C8.21969 1.45343 8.22825 1.46147 8.2367 1.46962C8.44969 1.67532 8.60765 1.931 8.69625 2.21325L11.4594 10.6883H19.7599L22.5263 2.18079C22.5333 2.15908 22.541 2.13757 22.5492 2.11628C22.6488 1.85911 22.807 1.62872 23.0113 1.44344C23.3401 1.14445 23.7686 0.978706 24.2133 0.978706C24.6589 0.978706 25.0885 1.14521 25.4175 1.44551C25.4262 1.45343 25.4347 1.46147 25.4432 1.46962C25.6563 1.67547 25.8144 1.93136 25.9029 2.21386L28.9447 11.5683L30.5282 16.2526C30.5307 16.26 30.5332 16.2674 30.5355 16.2749C30.5385 16.2842 30.5414 16.2936 30.5441 16.303C30.6823 16.7771 30.6638 17.2831 30.4913 17.7459C30.3235 18.1961 30.0188 18.5821 29.6203 18.8498ZM23.0113 1.44344L23.0136 1.44138L23.8512 2.36669L23.009 1.44551L23.0113 1.44344ZM24.6887 3.29199L24.6933 3.28786C24.6918 3.28925 24.6902 3.29062 24.6887 3.29199Z" fill="white"/>
</svg>
