<svg width="31" height="31" viewBox="0 0 31 31" fill="none" xmlns="http://www.w3.org/2000/svg">
<path fill-rule="evenodd" clip-rule="evenodd" d="M14.9441 1.9466C15.2271 1.84048 15.5389 1.84048 15.8219 1.9466L25.8219 5.6966C26.3098 5.87955 26.633 6.34596 26.633 6.86701V15.617C26.633 19.9251 23.7808 23.3674 21.2061 25.6202C19.8925 26.7696 18.5848 27.6681 17.608 28.2786C17.1183 28.5846 16.7084 28.8204 16.4181 28.9811C16.2728 29.0615 16.1573 29.1233 16.0763 29.1658C16.0359 29.187 16.004 29.2035 15.9814 29.215L15.9546 29.2287L15.9465 29.2328L15.9438 29.2342C15.9434 29.2344 15.942 29.235 15.383 28.117C14.824 29.235 14.8236 29.2349 14.8232 29.2347L14.8195 29.2328L14.8114 29.2287L14.7846 29.215C14.762 29.2035 14.7301 29.187 14.6896 29.1658C14.6087 29.1233 14.4932 29.0615 14.3479 28.9811C14.0576 28.8204 13.6477 28.5846 13.158 28.2786C12.1812 27.6681 10.8735 26.7696 9.55986 25.6202C6.98518 23.3674 4.133 19.9251 4.133 15.617V6.86701C4.133 6.34596 4.45621 5.87955 4.94409 5.6966L14.9441 1.9466ZM15.383 28.117L14.8232 29.2347C15.1751 29.4106 15.5901 29.411 15.942 29.235L15.383 28.117ZM15.383 26.6955C15.6225 26.5597 15.9289 26.3799 16.283 26.1586C17.1812 25.5972 18.3735 24.7769 19.5599 23.7388C21.9852 21.6166 24.133 18.809 24.133 15.617V7.73326L15.383 4.45201L6.633 7.73326V15.617C6.633 18.809 8.78081 21.6166 11.2061 23.7388C12.3925 24.7769 13.5848 25.5972 14.483 26.1586C14.8371 26.3799 15.1434 26.5597 15.383 26.6955Z" fill="white"/>
</svg>
